<?xml version="1.0" standalone="no"?>
<!DOCTYPE svg PUBLIC "-//W3C//DTD SVG 20010904//EN"
 "http://www.w3.org/TR/2001/REC-SVG-20010904/DTD/svg10.dtd">
<svg version="1.0" xmlns="http://www.w3.org/2000/svg"
 width="700.000000pt" height="700.000000pt" viewBox="0 0 700.000000 700.000000"
 preserveAspectRatio="xMidYMid meet">
<metadata>
Created by potrace 1.14, written by Peter Selinger 2001-2017
</metadata>
<g transform="translate(0.000000,700.000000) scale(0.100000,-0.100000)"
fill="#000000" stroke="none">
<path d="M1800 6989 c-276 -35 -473 -94 -705 -211 -362 -182 -657 -472 -862
-848 -73 -134 -166 -388 -187 -510 -3 -19 -13 -73 -23 -120 -15 -77 -17 -238
-19 -1745 -1 -981 1 -1697 7 -1750 19 -179 82 -429 149 -582 27 -62 109 -224
124 -243 7 -8 18 -27 25 -41 13 -27 100 -146 163 -224 35 -43 185 -195 233
-235 199 -167 424 -293 668 -374 73 -25 149 -48 168 -51 19 -3 50 -10 69 -15
19 -5 60 -12 90 -16 30 -3 82 -10 115 -14 78 -11 3292 -11 3370 0 33 4 84 11
114 15 30 4 63 9 75 11 12 3 35 8 51 11 49 8 256 73 301 94 24 10 45 19 48 19
38 0 405 213 446 259 3 3 28 24 55 45 128 101 311 309 419 478 81 127 204 404
231 520 3 13 12 52 20 88 9 36 20 90 25 120 5 30 12 71 16 90 11 51 14 3328 3
3430 -23 220 -75 417 -161 615 -29 66 -131 257 -150 280 -4 5 -43 57 -85 115
-129 176 -336 367 -535 494 -169 107 -445 219 -643 261 -207 43 -203 43 -1915
43 -899 -1 -1664 -4 -1700 -9z"/>
</g>
</svg>
