<svg width="30" height="30" viewBox="0 0 30 30" fill="none" xmlns="http://www.w3.org/2000/svg">
<path d="M17.9736 23.9268L10.1089 16.2466C9.75 15.8979 9.58594 15.5288 9.58594 15.0981C9.58594 14.6572 9.76025 14.2881 10.1089 13.9497L17.9736 6.25928C18.2402 5.99268 18.5684 5.85938 18.9683 5.85938C19.7578 5.85938 20.4038 6.49512 20.4038 7.28467C20.4038 7.66406 20.2397 8.0332 19.9526 8.32031L12.98 15.0879L19.9526 21.876C20.2397 22.1528 20.4038 22.522 20.4038 22.9116C20.4038 23.7012 19.7578 24.3369 18.9683 24.3369C18.5786 24.3369 18.2505 24.1934 17.9736 23.9268Z" fill="#96A7AF"/>
</svg>
