<svg width="40" height="40" viewBox="0 0 40 40" fill="none" xmlns="http://www.w3.org/2000/svg">
<mask id="mask0" mask-type="alpha" maskUnits="userSpaceOnUse" x="10" y="10" width="20" height="20">
<g clip-path="url(#clip0)">
<g clip-path="url(#clip1)">
<path d="M21.4203 28.4499L20.4355 29.4494C20.0186 29.8726 19.3444 29.8726 18.9318 29.4494L10.3088 20.7015C9.89185 20.2783 9.89185 19.594 10.3088 19.1753L18.9318 10.4229C19.3488 9.99967 20.023 9.99967 20.4355 10.4229L21.4203 11.4224C21.8417 11.8501 21.8328 12.5479 21.4025 12.9666L16.0575 18.1352H28.8057C29.3957 18.1352 29.8703 18.617 29.8703 19.2158V20.6565C29.8703 21.2553 29.3957 21.737 28.8057 21.737H16.0575L21.4025 26.9056C21.8372 27.3243 21.8461 28.0222 21.4203 28.4499Z" fill="#495057"/>
</g>
</g>
</mask>
<g mask="url(#mask0)">
<rect x="10" y="10" width="19.872" height="19.872" fill="white"/>
</g>
<rect x="0.552" y="0.552" width="38.896" height="38.896" rx="8.28" stroke="white" stroke-opacity="0.5" stroke-width="1.104"/>
<defs>
<clipPath id="clip0">
<rect width="19.872" height="19.872" fill="white" transform="translate(10 10)"/>
</clipPath>
<clipPath id="clip1">
<rect width="19.872" height="19.872" fill="white" transform="translate(10 10)"/>
</clipPath>
</defs>
</svg>
