<svg width="14" height="14" viewBox="0 0 14 14" fill="none" xmlns="http://www.w3.org/2000/svg">
<path d="M6.85714 0C3.07596 0 0 3.07596 0 6.85714C0 10.6383 3.07596 13.7143 6.85714 13.7143C10.6383 13.7143 13.7143 10.6383 13.7143 6.85714C13.7143 3.07596 10.6383 0 6.85714 0ZM10.1183 10.4039C10.0069 10.5154 9.8606 10.5715 9.71432 10.5715C9.56805 10.5715 9.42167 10.5154 9.31034 10.4039L6.45316 7.54688C6.3457 7.44005 6.28575 7.29482 6.28575 7.14289V3.42857C6.28575 3.11258 6.54168 2.85718 6.85714 2.85718C7.17261 2.85718 7.42854 3.11258 7.42854 3.42857V6.90632L10.1183 9.59598C10.3417 9.81948 10.3417 10.1806 10.1183 10.4039Z" fill="#96A7AF"/>
</svg>
