<svg width="55" height="54" viewBox="0 0 55 54" fill="none" xmlns="http://www.w3.org/2000/svg">
<rect x="0.0385742" width="54.9231" height="54" rx="8" fill="#FFC542"/>
<path d="M26.5576 17.7025C26.9153 16.9013 28.0851 16.9013 28.4429 17.7025L30.6069 22.55C30.7557 22.8835 31.0795 23.112 31.452 23.1465L36.867 23.6477C37.7621 23.7305 38.1235 24.8112 37.4495 25.3892L33.372 28.8864C33.0915 29.127 32.9678 29.4966 33.0492 29.8514L34.2318 35.0088C34.4272 35.8612 33.4809 36.5291 32.7067 36.0851L28.0226 33.3989C27.7004 33.2141 27.3001 33.2141 26.9779 33.3989L22.2938 36.0851C21.5196 36.5291 20.5732 35.8612 20.7687 35.0088L21.9512 29.8514C22.0326 29.4966 21.9089 29.127 21.6284 28.8864L17.5509 25.3892C16.8769 24.8112 17.2384 23.7305 18.1335 23.6477L23.5484 23.1465C23.921 23.112 24.2447 22.8835 24.3936 22.55L26.5576 17.7025Z" fill="white"/>
</svg>
