<svg width="25" height="25" viewBox="0 0 25 25" fill="none" xmlns="http://www.w3.org/2000/svg">
<path fill-rule="evenodd" clip-rule="evenodd" d="M10.8283 19.1816H4.52734C4.11334 19.1816 3.77734 18.8456 3.77734 18.4316C3.77734 18.0176 4.11334 17.6816 4.52734 17.6816H10.8283C11.2423 17.6816 11.5783 18.0176 11.5783 18.4316C11.5783 18.8456 11.2423 19.1816 10.8283 19.1816Z" fill="white"/>
<path fill-rule="evenodd" clip-rule="evenodd" d="M19.9367 9.49024H13.6367C13.2227 9.49024 12.8867 9.15424 12.8867 8.74023C12.8867 8.32623 13.2227 7.99023 13.6367 7.99023H19.9367C20.3507 7.99023 20.6867 8.32623 20.6867 8.74023C20.6867 9.15424 20.3507 9.49024 19.9367 9.49024Z" fill="white"/>
<mask id="mask0" mask-type="alpha" maskUnits="userSpaceOnUse" x="3" y="5" width="7" height="7">
<path fill-rule="evenodd" clip-rule="evenodd" d="M3.74609 5.58984H9.97189V11.7814H3.74609V5.58984Z" fill="white"/>
</mask>
<g mask="url(#mask0)">
<path fill-rule="evenodd" clip-rule="evenodd" d="M6.85961 7.08988C5.97061 7.08988 5.24661 7.80588 5.24661 8.68688C5.24661 9.56688 5.97061 10.2819 6.85961 10.2819C7.74961 10.2819 8.47261 9.56688 8.47261 8.68688C8.47261 7.80588 7.74961 7.08988 6.85961 7.08988ZM6.85909 11.7818C5.14309 11.7818 3.74609 10.3938 3.74609 8.68684C3.74609 6.97984 5.14309 5.58984 6.85909 5.58984C8.57609 5.58984 9.97209 6.97984 9.97209 8.68684C9.97209 10.3938 8.57609 11.7818 6.85909 11.7818Z" fill="white"/>
</g>
<path fill-rule="evenodd" clip-rule="evenodd" d="M18.1335 16.797C17.2435 16.797 16.5195 17.513 16.5195 18.393C16.5195 19.274 17.2435 19.989 18.1335 19.989C19.0225 19.989 19.7455 19.274 19.7455 18.393C19.7455 17.513 19.0225 16.797 18.1335 16.797ZM18.1335 21.4889C16.4165 21.4889 15.0195 20.0999 15.0195 18.3929C15.0195 16.6859 16.4165 15.2969 18.1335 15.2969C19.8495 15.2969 21.2455 16.6859 21.2455 18.3929C21.2455 20.0999 19.8495 21.4889 18.1335 21.4889Z" fill="white"/>
</svg>
