<svg width="32" height="32" viewBox="0 0 32 32" fill="none" xmlns="http://www.w3.org/2000/svg">
<path fill-rule="evenodd" clip-rule="evenodd" d="M23.5907 4.00357C22.9433 2.96548 21.5946 2.66007 20.5783 3.32139C19.9642 3.721 18.943 4.78416 18.2059 5.98471C17.8448 6.57311 17.6071 7.10693 17.506 7.52442C17.465 7.69416 17.4535 7.81153 17.4531 7.88839C17.4531 7.8928 17.4531 7.89719 17.4531 7.9016C17.4535 7.94607 17.4576 7.97541 17.4611 7.99238C17.498 8.02049 17.6138 8.09208 17.8953 8.14852C18.3085 8.23137 18.8825 8.23703 19.5572 8.15128C20.9339 7.97633 22.3088 7.48024 22.9229 7.08064C23.9392 6.4193 24.2381 5.04165 23.5907 4.00357ZM7.71788 9.71355H1.45455C0.651229 9.71355 0 10.3787 0 11.1993V17.1424C0 17.963 0.651229 18.6281 1.45455 18.6281V29.0285C1.45455 30.6696 2.75699 32 4.36364 32H16H27.6364C29.2431 32 30.5455 30.6696 30.5455 29.0285V18.6281C31.3488 18.6281 32 17.963 32 17.1424V11.1993C32 10.3787 31.3488 9.71355 30.5455 9.71355H24.2822C24.353 9.67165 24.4214 9.62932 24.4871 9.58661C26.8585 8.04349 27.5561 4.82897 26.0454 2.40677C24.5347 -0.0154247 21.3878 -0.728067 19.0164 0.815046C18.0365 1.45272 16.8737 2.6931 16 4.00379C15.1263 2.6931 13.9635 1.45272 12.9836 0.815046C10.6123 -0.728067 7.46531 -0.0154247 5.95462 2.40677C4.44393 4.82897 5.1416 8.04349 7.5129 9.58661C7.57855 9.62932 7.64694 9.67165 7.71788 9.71355ZM14.5452 7.88839C14.5452 7.89279 14.5452 7.8972 14.5452 7.9016C14.5447 7.94608 14.5407 7.97541 14.5372 7.99238C14.5002 8.02049 14.3845 8.09208 14.103 8.14852C13.6898 8.23137 13.1158 8.23703 12.4411 8.15128C11.0644 7.97633 9.68947 7.48024 9.07539 7.08064C8.05912 6.4193 7.76012 5.04165 8.40755 4.00357C9.055 2.96548 10.4037 2.66007 11.42 3.32139C12.0341 3.721 13.0553 4.78416 13.7923 5.98471C14.1535 6.57311 14.3911 7.10693 14.4922 7.52442C14.5333 7.69416 14.5447 7.81153 14.5452 7.88839ZM4.36288 18.628V29.0284H14.5447V18.628H4.36288ZM14.5446 15.6566H2.9082V12.6851H14.5446V15.6566ZM17.4547 18.628V29.0284H27.6365V18.628H17.4547ZM17.4547 15.6566V12.6851H29.091V15.6566H17.4547Z" fill="white"/>
</svg>
