<svg width="25" height="25" viewBox="0 0 25 25" fill="none" xmlns="http://www.w3.org/2000/svg">
<path d="M12.7461 23.9004C6.67096 23.9004 1.74609 18.9755 1.74609 12.9004C1.74609 6.82526 6.67096 1.90039 12.7461 1.90039C18.8212 1.90039 23.7461 6.82526 23.7461 12.9004C23.7461 18.9755 18.8212 23.9004 12.7461 23.9004Z" stroke="url(#paint0_linear)" stroke-width="2"/>
<path d="M5.74609 12.9004C5.74609 16.7664 8.8801 19.9004 12.7461 19.9004C16.6121 19.9004 19.7461 16.7664 19.7461 12.9004C19.7461 9.0344 16.6121 5.90039 12.7461 5.90039C8.8801 5.90039 5.74609 9.0344 5.74609 12.9004Z" fill="url(#paint1_linear)"/>
<defs>
<linearGradient id="paint0_linear" x1="9.35717" y1="24.9004" x2="20.4118" y2="3.76903" gradientUnits="userSpaceOnUse">
<stop stop-color="#D680F1"/>
<stop offset="1" stop-color="#765BEB"/>
</linearGradient>
<linearGradient id="paint1_linear" x1="10.7692" y1="19.9004" x2="17.2177" y2="7.57376" gradientUnits="userSpaceOnUse">
<stop stop-color="#D680F1"/>
<stop offset="1" stop-color="#765BEB"/>
</linearGradient>
</defs>
</svg>
