<svg width="52" height="33" viewBox="0 0 52 33" fill="none" xmlns="http://www.w3.org/2000/svg">
<path d="M46.0808 21.9106C46.1456 21.1745 46.2133 20.7769 46.2105 20.3792C46.1936 14.1323 46.1992 7.88262 46.1231 1.63574C46.109 0.425846 46.4248 -0.104363 47.6968 0.0169081C48.6274 0.104336 49.5779 0.0761336 50.5142 0.0169081C51.5774 -0.0535985 52.0118 0.290473 52.0005 1.43832C51.9413 7.49906 51.9497 13.5598 51.9384 19.6206C51.9328 23.7494 51.9384 27.8783 51.9384 32.2243C50.4014 32.2243 48.9602 32.292 47.5332 32.182C47.1271 32.151 46.6984 31.6462 46.3882 31.2654C40.7138 24.3163 35.0563 17.3559 29.3933 10.3983C29.0774 10.0119 28.7446 9.63682 28.1636 8.95714C28.1213 9.88501 28.0818 10.4265 28.0734 10.968C28.0226 14.2536 28.127 17.5505 27.9042 20.8248C27.4557 27.4468 23.1351 31.7392 16.547 32.5374C13.2444 32.9378 10.0434 32.7038 7.05678 31.2852C2.07337 28.9161 0.147135 24.5814 0.0512458 19.3498C-0.0587445 13.385 0.0456052 7.41728 0.0258634 1.4496C0.0230431 0.479431 0.389677 0.0845944 1.35985 0.138179C2.25105 0.186124 3.15071 0.205866 4.03628 0.124078C5.24335 0.0112675 5.67767 0.411745 5.66075 1.6865C5.58742 6.90117 5.55076 12.1187 5.64947 17.3305C5.68331 19.1355 5.96534 20.9827 6.45888 22.72C7.27676 25.6023 9.74167 27.4129 12.7199 27.5342C14.0228 27.5878 15.3794 27.6357 16.6344 27.3453C20.2951 26.5048 22.337 23.5097 22.3736 19.0368C22.4216 13.258 22.4385 7.47932 22.368 1.7006C22.3511 0.346879 22.8164 0.0563917 24.0545 0.0648525C28.1946 0.0874146 28.1721 0.0648525 30.7949 3.28559C35.6007 9.18276 40.4374 15.0574 45.2601 20.9404C45.4603 21.1858 45.669 21.4227 46.0808 21.9106Z" fill="url(#paint0_linear)"/>
<defs>
<linearGradient id="paint0_linear" x1="52.0007" y1="8.17803" x2="1.29641" y2="8.24692" gradientUnits="userSpaceOnUse">
<stop stop-color="#D680F1"/>
<stop offset="1" stop-color="#765BEB"/>
</linearGradient>
</defs>
</svg>
