<svg width="32" height="32" viewBox="0 0 32 32" fill="white" xmlns="http://www.w3.org/2000/svg">
<g clip-path="url(#clip0)">
<path d="M2.13281 8.53387V22.9339C2.13458 24.4059 3.32745 25.5988 4.79948 25.6005H10.1328C10.3004 25.6019 10.4579 25.6806 10.5595 25.8139L14.7685 31.4245C15.0761 31.7933 15.5329 32.0047 16.0131 32.0006C16.4932 31.9964 16.9463 31.7772 17.2475 31.4032L21.4395 25.8139C21.5412 25.6808 21.6986 25.6021 21.8661 25.6005H27.1995C28.6715 25.5988 29.8644 24.4059 29.8661 22.9339V8.53387C29.8644 7.06184 28.6715 5.86897 27.1995 5.86721H23.7051C22.7119 2.26123 19.3497 -0.172859 15.6139 0.00960519C12.1659 0.182753 9.21522 2.5419 8.28748 5.86721H4.79948C3.32745 5.86897 2.13458 7.06184 2.13281 8.53387H2.13281ZM15.664 1.07521C17.5589 0.983416 19.4086 1.67206 20.7821 2.98065C22.1555 4.28924 22.9328 6.10347 22.9328 8.00054C22.9401 9.91851 22.1433 11.7518 20.736 13.0549C19.3925 14.3512 18.6436 16.1445 18.6661 18.0112V18.6672H13.3328V18.1008C13.356 16.1935 12.5973 14.3599 11.2331 13.0267C9.21573 11.1185 8.53288 8.19002 9.49817 5.58636C10.4635 2.9827 12.8903 1.20713 15.664 1.07521ZM17.5995 22.4005H14.3995C13.8104 22.4005 13.3328 21.923 13.3328 21.3339V19.7339H18.6661V21.3339C18.6661 21.923 18.1886 22.4005 17.5995 22.4005ZM3.19948 8.53387C3.19948 7.65022 3.91582 6.93387 4.79948 6.93387H8.07788C8.06295 7.04534 8.04215 7.1552 8.03255 7.26827C7.80518 9.70986 8.71553 12.12 10.5003 13.8016C11.6517 14.9331 12.2898 16.4866 12.2661 18.1008V21.3339C12.2698 22.3037 12.9271 23.149 13.8661 23.3915V24.0005C13.8661 24.2951 14.1049 24.5339 14.3995 24.5339C14.694 24.5339 14.9328 24.2951 14.9328 24.0005V23.4672H17.0661V24.0005C17.0661 24.2951 17.3049 24.5339 17.5995 24.5339C17.894 24.5339 18.1328 24.2951 18.1328 24.0005V23.3915C19.0718 23.149 19.7292 22.3037 19.7328 21.3339V18.0112C19.7096 16.4397 20.3362 14.9282 21.4645 13.8341C23.0887 12.33 24.0081 10.2141 23.9995 8.00054C23.9968 7.64365 23.9706 7.28732 23.9211 6.93387H27.1995C28.0831 6.93387 28.7995 7.65022 28.7995 8.53387V22.9339C28.7995 23.8175 28.0831 24.5339 27.1995 24.5339H21.8661C21.3631 24.5363 20.8899 24.7729 20.5861 25.1739L16.4112 30.7424C16.1942 30.9705 15.8336 30.9801 15.6048 30.7637L11.4128 25.1739C11.1092 24.7727 10.6359 24.536 10.1328 24.5339H4.79948C3.91582 24.5339 3.19948 23.8175 3.19948 22.9339V8.53387Z" fill="#BABABE"/>
<path d="M14.9318 14.9336C14.6372 14.9336 14.3984 15.1724 14.3984 15.4669V17.0669C14.3984 17.3615 14.6372 17.6003 14.9318 17.6003C15.2263 17.6003 15.4651 17.3615 15.4651 17.0669V15.4669C15.4651 15.1724 15.2263 14.9336 14.9318 14.9336Z" fill="#BABABE"/>
<path d="M14.3984 12.801C14.3984 13.0956 14.6372 13.3344 14.9318 13.3344C15.2263 13.3344 15.4651 13.0956 15.4651 12.801V12.2677C15.4651 11.9732 15.2263 11.7344 14.9318 11.7344C14.6372 11.7344 14.3984 11.9732 14.3984 12.2677V12.801Z" fill="#BABABE"/>
<path d="M17.0646 17.6003C17.3591 17.6003 17.5979 17.3615 17.5979 17.0669V15.4669C17.5979 15.1724 17.3591 14.9336 17.0646 14.9336C16.77 14.9336 16.5312 15.1724 16.5312 15.4669V17.0669C16.5312 17.3615 16.77 17.6003 17.0646 17.6003Z" fill="#BABABE"/>
<path d="M17.0646 13.3344C17.3591 13.3344 17.5979 13.0956 17.5979 12.801V12.2677C17.5979 11.9732 17.3591 11.7344 17.0646 11.7344C16.77 11.7344 16.5312 11.9732 16.5312 12.2677V12.801C16.5312 13.0956 16.77 13.3344 17.0646 13.3344Z" fill="#BABABE"/>
<path d="M7.46581 3.73533C7.69237 3.73544 7.89428 3.59239 7.9693 3.3786C8.04432 3.16482 7.97609 2.92696 7.79914 2.78547L5.13247 0.652132C4.90242 0.468037 4.5667 0.505287 4.3826 0.735332C4.19851 0.965377 4.23576 1.3011 4.4658 1.4852L7.13247 3.61853C7.22709 3.6942 7.34465 3.73539 7.46581 3.73533Z" fill="#BABABE"/>
<path d="M24.8668 3.61853L27.5335 1.4852C27.7635 1.3011 27.8008 0.965377 27.6167 0.735332C27.4326 0.505287 27.0969 0.468037 26.8668 0.652132L24.2002 2.78547C24.0514 2.90455 23.9774 3.09399 24.0061 3.28241C24.0348 3.47083 24.1619 3.62961 24.3394 3.69894C24.517 3.76827 24.718 3.73762 24.8668 3.61853Z" fill="#BABABE"/>
<path d="M4.38265 19.0002C4.47103 19.1107 4.5997 19.1815 4.74034 19.1971C4.88098 19.2127 5.02206 19.1718 5.13252 19.0834L7.79919 16.95C8.02923 16.7659 8.06648 16.4302 7.88239 16.2002C7.69829 15.9701 7.36256 15.9329 7.13252 16.117L4.46585 18.2503C4.35534 18.3387 4.28448 18.4674 4.26888 18.608C4.25328 18.7486 4.2942 18.8897 4.38265 19.0002Z" fill="#BABABE"/>
<path d="M26.8668 19.0834C27.0969 19.2675 27.4326 19.2302 27.6167 19.0002C27.8008 18.7701 27.7635 18.4344 27.5335 18.2503L24.8668 16.117C24.6368 15.9329 24.3011 15.9701 24.117 16.2002C23.9329 16.4302 23.9701 16.7659 24.2002 16.95L26.8668 19.0834Z" fill="#BABABE"/>
<path d="M11.0962 6.92497C11.1297 6.93169 11.1639 6.93508 11.1981 6.93511C11.4532 6.93465 11.6723 6.75358 11.7207 6.50311C12.1031 4.53884 14.0482 3.70257 14.0674 3.69457C14.3397 3.5822 14.4694 3.27035 14.357 2.99804C14.2446 2.72573 13.9328 2.59607 13.6605 2.70844C13.5586 2.75004 11.1666 3.76124 10.6738 6.30044C10.6181 6.58952 10.8072 6.86906 11.0962 6.92497Z" fill="#BABABE"/>
<path d="M4.79896 9.60182H6.39896C6.69351 9.60182 6.93229 9.36304 6.93229 9.06849C6.93229 8.77394 6.69351 8.53516 6.39896 8.53516H4.79896C4.50441 8.53516 4.26562 8.77394 4.26562 9.06849C4.26562 9.36304 4.50441 9.60182 4.79896 9.60182Z" fill="#BABABE"/>
<path d="M25.5997 9.60182H27.1997C27.4943 9.60182 27.7331 9.36304 27.7331 9.06849C27.7331 8.77394 27.4943 8.53516 27.1997 8.53516H25.5997C25.3052 8.53516 25.0664 8.77394 25.0664 9.06849C25.0664 9.36304 25.3052 9.60182 25.5997 9.60182Z" fill="#BABABE"/>
</g>
<defs>
<clipPath id="clip0">
<rect width="32" height="32" fill="white"/>
</clipPath>
</defs>
</svg>
