<svg width="86" height="82" viewBox="0 0 86 82" fill="none" xmlns="http://www.w3.org/2000/svg">
<g opacity="0.2">
<rect width="85.1948" height="82" rx="10.05" fill="#96A7AF"/>
</g>
<path opacity="0.8" d="M55.9729 47.7934C55.9729 49.5785 55.5023 51.2337 54.5611 52.7591C53.6524 54.252 52.2893 55.4853 50.4718 56.459C48.6867 57.4002 46.5609 57.9194 44.0943 58.0168V61.9601H40.9786V57.9681C37.5384 57.676 34.7635 56.6537 32.6539 54.9011C30.5443 53.1161 29.4246 50.6982 29.2948 47.6474H38.155C38.3498 49.5947 39.291 50.8442 40.9786 51.396V43.7041C38.4471 43.055 36.4187 42.4221 34.8933 41.8054C33.4004 41.1888 32.0859 40.1989 30.95 38.8358C29.8141 37.4727 29.2461 35.6065 29.2461 33.2373C29.2461 30.2839 30.3333 27.9146 32.5078 26.1296C34.7148 24.3446 37.5384 23.3385 40.9786 23.1113V19.168H44.0943V23.1113C47.5021 23.3709 50.1959 24.3608 52.1757 26.0809C54.1554 27.801 55.2589 30.1865 55.4861 33.2373H46.5771C46.3824 31.4847 45.5548 30.3488 44.0943 29.8295V37.3753C46.7881 38.1218 48.8652 38.7871 50.3257 39.3713C51.7862 39.9555 53.0844 40.9292 54.2203 42.2923C55.3887 43.6229 55.9729 45.4567 55.9729 47.7934ZM38.0577 32.8478C38.0577 33.6592 38.3011 34.3408 38.7879 34.8925C39.3072 35.4442 40.0374 35.9311 40.9786 36.353V29.5861C40.0699 29.7484 39.3559 30.1054 38.8366 30.6571C38.3173 31.1764 38.0577 31.9066 38.0577 32.8478ZM44.0943 51.542C45.068 51.3797 45.8307 50.9903 46.3824 50.3736C46.9666 49.757 47.2587 48.9943 47.2587 48.0855C47.2587 47.2417 46.9828 46.5601 46.4311 46.0408C45.9118 45.4891 45.1329 45.0185 44.0943 44.629V51.542Z" fill="white"/>
</svg>
